<svg width="64" height="64" viewBox="0 0 64 64" fill="none" xmlns="http://www.w3.org/2000/svg">
  <!-- Improved Documents Icon - Stacked sheets -->

  <!-- Back document -->
  <path d="M14 28C14 25.8 15.8 24 18 24H40C42.2 24 44 25.8 44 28V52C44 54.2 42.2 56 40 56H18C15.8 56 14 54.2 14 52V28Z"
    stroke="currentColor" stroke-width="2.5" fill="none" stroke-linejoin="round" opacity="0.5"/>

  <!-- Front document -->
  <path d="M22 12C22 9.8 23.8 8 26 8H48C50.2 8 52 9.8 52 12V36C52 38.2 50.2 40 48 40H26C23.8 40 22 38.2 22 36V12Z"
    stroke="currentColor" stroke-width="2.5" fill="none" stroke-linejoin="round"/>

  <!-- Fold corner -->
  <path d="M48 8L44 12H48V8Z" stroke="currentColor" stroke-width="2" fill="none"/>

  <!-- Text lines on front document -->
  <g stroke="currentColor" stroke-width="1.5" stroke-linecap="round" opacity="0.7">
    <line x1="28" y1="18" x2="46" y2="18"/>
    <line x1="28" y1="24" x2="46" y2="24"/>
    <line x1="28" y1="30" x2="46" y2="30"/>
  </g>
</svg>