<svg width="64" height="64" viewBox="0 0 64 64" fill="none" xmlns="http://www.w3.org/2000/svg">
  <!-- Handle -->
  <path d="M32 8C36 8 40 10 42 14" stroke="currentColor" stroke-width="3" fill="none" stroke-linecap="round"/>

  <!-- Main circle -->
  <circle cx="32" cy="36" r="18" stroke="currentColor" stroke-width="3" fill="none"/>

  <!-- Left ear -->
  <path d="M22 18C20 18 18 20 18 22C18 24 20 26 22 26" stroke="currentColor" stroke-width="3" fill="none" stroke-linecap="round"/>

  <!-- Right ear -->
  <path d="M42 18C44 18 46 20 46 22C46 24 44 26 42 26" stroke="currentColor" stroke-width="3" fill="none" stroke-linecap="round"/>

  <!-- Hour markers -->
  <line x1="32" y1="20" x2="32" y2="24" stroke="currentColor" stroke-width="2" stroke-linecap="round"/>
  <line x1="32" y1="48" x2="32" y2="52" stroke="currentColor" stroke-width="2" stroke-linecap="round"/>
  <line x1="48" y1="36" x2="52" y2="36" stroke="currentColor" stroke-width="2" stroke-linecap="round"/>
  <line x1="12" y1="36" x2="16" y2="36" stroke="currentColor" stroke-width="2" stroke-linecap="round"/>

  <!-- Diagonal marks -->
  <line x1="40" y1="22" x2="42.8" y2="19.2" stroke="currentColor" stroke-width="2" stroke-linecap="round"/>
  <line x1="24" y1="22" x2="21.2" y2="19.2" stroke="currentColor" stroke-width="2" stroke-linecap="round"/>
  <line x1="40" y1="50" x2="42.8" y2="52.8" stroke="currentColor" stroke-width="2" stroke-linecap="round"/>
  <line x1="24" y1="50" x2="21.2" y2="52.8" stroke="currentColor" stroke-width="2" stroke-linecap="round"/>

  <!-- Hour hand -->
  <line x1="32" y1="36" x2="32" y2="28" stroke="currentColor" stroke-width="2.5" stroke-linecap="round"/>

  <!-- Minute hand -->
  <line x1="32" y1="36" x2="40" y2="44" stroke="currentColor" stroke-width="2.5" stroke-linecap="round"/>

  <!-- Center dot -->
  <circle cx="32" cy="36" r="1.5" fill="currentColor"/>
</svg>