<svg width="1280" height="720" viewBox="0 0 1280 720" fill="none" xmlns="http://www.w3.org/2000/svg">
  <!-- Background -->
  <rect width="1280" height="720" fill="#F8FAFC"/>
  
  <!-- Sidebar -->
  <rect width="256" height="720" fill="#FFFFFF"/>
  <rect width="255" height="720" fill="none" stroke="#E2E8F0"/>
  
  <!-- Sidebar Items -->
  <rect x="32" y="40" width="140" height="32" rx="6" fill="#0F172A"/> <!-- Logo -->
  <rect x="32" y="112" width="192" height="40" rx="8" fill="#F1F5F9"/> <!-- Active Item -->
  <rect x="32" y="168" width="192" height="12" rx="4" fill="#E2E8F0"/>
  <rect x="32" y="208" width="160" height="12" rx="4" fill="#E2E8F0"/>
  <rect x="32" y="248" width="192" height="12" rx="4" fill="#E2E8F0"/>
  <rect x="32" y="288" width="140" height="12" rx="4" fill="#E2E8F0"/>
  
  <!-- Main Content Header -->
  <rect x="304" y="40" width="240" height="32" rx="4" fill="#0F172A"/>
  <rect x="1100" y="40" width="140" height="40" rx="20" fill="#3B82F6"/> <!-- CTA -->
  
  <!-- Stats Cards -->
  <rect x="304" y="112" width="280" height="140" rx="12" fill="#FFFFFF" stroke="#E2E8F0"/>
  <circle cx="344" cy="152" r="20" fill="#DBEAFE"/>
  <rect x="324" y="196" width="100" height="24" rx="4" fill="#0F172A"/>
  <rect x="324" y="228" width="60" height="12" rx="4" fill="#94A3B8"/>
  
  <rect x="616" y="112" width="280" height="140" rx="12" fill="#FFFFFF" stroke="#E2E8F0"/>
  <circle cx="656" cy="152" r="20" fill="#DCFCE7"/>
  <rect x="636" y="196" width="100" height="24" rx="4" fill="#0F172A"/>
  <rect x="636" y="228" width="60" height="12" rx="4" fill="#94A3B8"/>
  
  <rect x="928" y="112" width="280" height="140" rx="12" fill="#FFFFFF" stroke="#E2E8F0"/>
  <circle cx="968" cy="152" r="20" fill="#F3E8FF"/>
  <rect x="948" y="196" width="100" height="24" rx="4" fill="#0F172A"/>
  <rect x="948" y="228" width="60" height="12" rx="4" fill="#94A3B8"/>
  
  <!-- Main Chart Area -->
  <rect x="304" y="284" width="904" height="380" rx="12" fill="#FFFFFF" stroke="#E2E8F0"/>
  <rect x="344" y="324" width="200" height="20" rx="4" fill="#0F172A"/>
  
  <!-- Chart Bars -->
  <rect x="344" y="400" width="60" height="200" rx="4" transform="matrix(1 0 0 -1 0 1000)" fill="#3B82F6"/>
  <rect x="444" y="400" width="60" height="140" rx="4" transform="matrix(1 0 0 -1 0 1000)" fill="#E2E8F0"/>
  <rect x="544" y="400" width="60" height="240" rx="4" transform="matrix(1 0 0 -1 0 1000)" fill="#E2E8F0"/>
  <rect x="644" y="400" width="60" height="180" rx="4" transform="matrix(1 0 0 -1 0 1000)" fill="#E2E8F0"/>
  <rect x="744" y="400" width="60" height="220" rx="4" transform="matrix(1 0 0 -1 0 1000)" fill="#E2E8F0"/>
  <rect x="844" y="400" width="60" height="160" rx="4" transform="matrix(1 0 0 -1 0 1000)" fill="#E2E8F0"/>
  <rect x="944" y="400" width="60" height="260" rx="4" transform="matrix(1 0 0 -1 0 1000)" fill="#E2E8F0"/>
  <rect x="1044" y="400" width="60" height="190" rx="4" transform="matrix(1 0 0 -1 0 1000)" fill="#E2E8F0"/>

</svg>
